<?xml version="1.0" standalone="no"?>
<!DOCTYPE svg PUBLIC "-//W3C//DTD SVG 20010904//EN"
 "http://www.w3.org/TR/2001/REC-SVG-20010904/DTD/svg10.dtd">
<svg version="1.0" xmlns="http://www.w3.org/2000/svg"
 width="500.000000pt" height="491.000000pt" viewBox="0 0 500.000000 491.000000"
 preserveAspectRatio="xMidYMid meet">

<g transform="translate(0.000000,491.000000) scale(0.100000,-0.100000)"
fill="#000000" stroke="none">
<path d="M2903 4865 c-161 -44 -295 -158 -383 -326 -64 -123 -85 -212 -85
-364 0 -138 11 -199 52 -299 35 -83 105 -188 118 -175 3 3 -3 14 -13 25 -29
32 -71 118 -87 180 -23 86 -21 249 4 346 64 245 250 437 454 469 59 9 76 8
135 -10 355 -109 419 -706 107 -1014 -26 -26 -118 -85 -151 -97 -15 -6 -25
-13 -22 -15 9 -9 118 45 172 84 188 139 306 380 306 626 0 182 -54 326 -164
438 -123 126 -286 174 -443 132z"/>
<path d="M1295 4480 c-79 -10 -158 -42 -223 -92 -228 -176 -251 -515 -54 -805
48 -71 72 -94 72 -69 0 9 8 28 17 42 16 24 15 28 -10 77 -91 183 -101 376 -25
520 37 70 92 120 167 156 49 23 68 26 156 25 112 -1 186 -23 292 -85 131 -78
265 -244 315 -389 23 -69 31 -228 15 -300 -11 -52 8 -23 22 32 15 64 14 209
-4 290 -52 249 -254 487 -485 571 -38 14 -174 39 -190 35 -3 0 -32 -4 -65 -8z"/>
<path d="M4302 4194 c-289 -57 -529 -333 -571 -658 -18 -131 1 -251 56 -359
33 -65 40 -55 8 12 -15 29 -30 85 -35 127 -46 362 292 749 640 732 211 -10
340 -173 340 -426 0 -146 -55 -297 -156 -428 -66 -87 -133 -140 -237 -190 -67
-31 -91 -37 -169 -42 -72 -4 -87 -7 -68 -14 14 -5 56 -7 95 -3 429 41 766 518
648 918 -70 239 -303 379 -551 331z"/>
<path d="M2988 3573 c7 -3 16 -2 19 1 4 3 -2 6 -13 5 -11 0 -14 -3 -6 -6z"/>
<path d="M2230 3517 c-106 -74 -180 -130 -176 -135 2 -2 46 18 96 43 96 48
115 48 105 0 -2 -11 -7 -60 -10 -110 -6 -88 -5 -92 30 -168 78 -168 88 -277
40 -400 -21 -54 -22 -57 -4 -41 39 35 71 119 76 202 6 91 -6 156 -47 252 -28
65 -28 65 -23 238 3 94 1 172 -3 172 -5 0 -43 -24 -84 -53z"/>
<path d="M2873 3563 c15 -2 39 -2 55 0 15 2 2 4 -28 4 -30 0 -43 -2 -27 -4z"/>
<path d="M1190 3523 c0 -4 9 -78 20 -163 26 -203 26 -212 -10 -261 -46 -65
-70 -139 -70 -223 0 -124 48 -242 156 -385 l56 -75 -12 -79 c-15 -94 -8 -223
15 -290 21 -59 31 -56 14 4 -19 71 -13 193 14 293 l24 88 -26 32 c-37 43 -108
159 -132 214 -35 80 -50 177 -40 242 12 71 32 113 77 160 l34 36 -15 104 c-8
58 -17 125 -21 149 -4 25 -3 42 2 39 5 -3 58 -33 118 -67 l110 -62 46 25 c62
34 159 56 248 56 52 0 71 3 66 11 -5 8 -45 10 -133 6 -100 -4 -137 -9 -177
-27 l-52 -22 -143 94 c-174 114 -169 111 -169 101z"/>
<path d="M2540 3524 c-110 -9 -110 -9 -110 -66 0 -50 0 -50 28 -44 15 4 101
10 192 13 195 6 336 -13 513 -71 119 -39 313 -133 410 -197 337 -227 614 -569
731 -903 3 -10 9 -17 11 -14 8 8 -30 108 -75 198 -272 545 -782 947 -1337
1054 -127 24 -276 37 -363 30z"/>
<path d="M1986 3473 c-6 -14 -5 -15 5 -6 7 7 10 15 7 18 -3 3 -9 -2 -12 -12z"/>
<path d="M1925 3095 c-22 -8 -41 -15 -42 -15 -10 0 -32 -62 -27 -74 5 -12 11
-9 28 15 12 19 42 40 73 53 29 12 55 25 59 29 13 12 -49 7 -91 -8z"/>
<path d="M462 3079 c-362 -52 -544 -373 -391 -689 33 -68 58 -101 123 -165
187 -185 449 -259 719 -204 76 15 207 83 259 133 43 41 46 47 53 114 4 39 4
76 0 81 -3 6 -28 -12 -59 -43 -95 -98 -224 -146 -391 -146 -364 0 -684 258
-662 532 17 210 200 361 468 387 l84 8 -70 0 c-38 0 -98 -4 -133 -8z"/>
<path d="M703 3073 c9 -2 23 -2 30 0 6 3 -1 5 -18 5 -16 0 -22 -2 -12 -5z"/>
<path d="M1490 3051 c0 -5 21 -15 46 -22 26 -8 55 -24 64 -37 11 -14 21 -18
25 -12 12 20 -7 52 -41 66 -37 16 -94 19 -94 5z"/>
<path d="M940 3006 c0 -2 7 -7 16 -10 8 -3 12 -2 9 4 -6 10 -25 14 -25 6z"/>
<path d="M1012 2964 c10 -10 20 -15 24 -12 3 4 -5 12 -18 18 -22 12 -22 12 -6
-6z"/>
<path d="M2043 2935 c-39 -13 -87 -34 -105 -46 -18 -12 -24 -18 -13 -14 11 5
61 22 112 39 51 17 92 34 93 39 0 11 -8 9 -87 -18z"/>
<path d="M3010 2952 c-101 -8 -294 -47 -362 -74 -121 -46 -221 -128 -269 -218
-32 -62 -48 -79 -94 -103 -36 -18 -59 -21 -205 -22 -118 -1 -173 -5 -192 -15
-43 -21 -33 -28 19 -15 70 18 126 3 193 -49 73 -58 74 -73 8 -123 -106 -79
-198 -143 -208 -143 -6 0 -29 9 -50 20 -48 24 -55 46 -47 144 l5 71 -14 -45
c-7 -25 -14 -75 -14 -111 l0 -66 58 -29 c49 -25 61 -37 84 -84 25 -51 25 -56
11 -84 -12 -24 -14 -50 -10 -118 3 -53 2 -88 -4 -88 -17 0 -69 93 -90 160 -11
36 -23 95 -26 133 -3 37 -9 67 -13 67 -11 0 -1 -126 15 -198 21 -88 56 -153
111 -201 26 -22 50 -41 55 -41 4 0 5 -31 2 -70 -7 -84 12 -145 60 -187 18 -16
77 -55 132 -87 150 -88 163 -98 192 -141 19 -29 28 -57 31 -98 6 -84 -12 -129
-76 -188 -57 -52 -62 -65 -8 -24 58 44 57 49 60 -195 1 -28 5 -36 24 -38 20
-3 22 1 22 40 0 37 5 47 33 69 31 25 87 123 87 153 0 33 -31 49 -87 42 -29 -3
-53 -2 -53 3 0 5 7 26 16 47 23 54 14 141 -20 198 -31 53 -82 96 -196 164
-143 86 -175 128 -168 219 7 76 22 88 111 88 66 -1 82 -5 192 -57 251 -116
455 -184 531 -175 52 5 111 47 120 84 17 66 -32 111 -132 123 -232 29 -385 70
-522 139 -31 16 -122 74 -201 128 -109 75 -149 108 -168 140 l-24 42 103 66
c188 121 223 174 156 236 -18 16 -36 29 -40 29 -5 0 -8 4 -8 9 0 5 26 13 58
17 75 9 142 31 170 57 12 11 35 43 51 71 15 28 48 69 73 92 89 82 177 119 368
153 492 89 923 -99 1175 -513 113 -185 174 -309 195 -393 10 -43 -9 -68 -93
-121 -243 -154 -605 -279 -738 -257 -99 17 -100 141 -4 459 95 313 112 419 76
490 -33 63 -51 127 -51 177 0 26 -5 51 -11 55 -23 14 -4 -155 25 -226 26 -65
26 -65 11 -140 -8 -41 -41 -151 -71 -245 -95 -288 -107 -334 -111 -430 -5
-100 9 -141 61 -179 61 -46 236 -29 433 44 59 22 109 38 110 36 2 -2 -7 -27
-21 -57 -59 -135 -54 -216 16 -271 58 -46 189 -207 227 -277 17 -32 34 -80 37
-105 9 -64 24 -58 24 9 0 116 -68 242 -202 377 -98 100 -100 104 -72 212 37
147 25 129 132 186 127 68 220 133 255 179 33 42 31 66 -11 164 -52 121 -252
415 -395 580 -97 112 -262 219 -419 271 -130 44 -309 68 -428 58z m-920 -1037
c93 -70 201 -137 277 -172 72 -33 265 -87 353 -98 108 -13 181 -29 191 -41 7
-9 5 -18 -10 -33 -51 -51 -238 -4 -540 136 -159 73 -237 88 -308 58 -48 -20
-49 -20 -67 26 -23 56 -31 150 -17 178 12 22 13 22 39 5 15 -9 52 -36 82 -59z
m386 -960 c7 -17 -35 -97 -53 -103 -9 -2 -13 10 -13 42 0 35 5 48 22 60 28 20
37 20 44 1z"/>
<path d="M1720 2891 c-35 -5 -48 -12 -60 -34 -13 -23 -13 -29 -1 -36 8 -5 20
-7 26 -5 14 6 55 -58 55 -85 0 -25 -31 -50 -75 -62 -25 -7 -34 -14 -26 -19 19
-11 80 6 106 30 22 20 25 21 53 6 20 -10 55 -16 99 -15 l68 1 -75 15 c-41 7
-85 22 -98 32 -21 15 -23 22 -16 69 5 42 10 52 25 52 19 0 24 16 11 36 -10 17
-41 21 -92 15z"/>
<path d="M1960 2850 c-14 -4 27 -6 90 -3 63 3 117 7 119 9 9 8 -185 2 -209 -6z"/>
<path d="M1320 2831 c-18 -7 0 -9 65 -10 50 -1 119 -6 155 -11 74 -11 89 -6
33 10 -50 14 -221 22 -253 11z"/>
<path d="M1946 2791 c-3 -5 16 -11 43 -15 27 -4 75 -15 107 -26 68 -24 75 -25
49 -6 -39 26 -190 62 -199 47z"/>
<path d="M1412 2754 c-55 -14 -97 -33 -90 -39 2 -3 26 3 53 11 28 8 79 21 115
29 63 13 64 13 20 13 -25 1 -69 -6 -98 -14z"/>
<path d="M1566 2730 c-33 -10 -88 -38 -123 -62 -70 -48 -87 -74 -20 -31 23 14
83 46 132 69 98 47 101 53 11 24z"/>
<path d="M2821 2635 c-69 -75 -41 -106 94 -103 44 0 68 3 53 5 -28 4 -38 26
-18 38 6 3 10 17 10 31 0 26 9 31 28 12 6 -6 14 -9 17 -6 10 10 -91 68 -117
68 -17 0 -39 -14 -67 -45z m31 -50 c3 -14 2 -28 -2 -30 -15 -9 -40 7 -40 24 0
38 35 43 42 6z"/>
<path d="M1935 2425 c-31 -30 -34 -80 -6 -95 32 -17 48 -11 22 9 -19 14 -22
24 -17 44 9 38 36 49 71 31 37 -19 43 -11 9 15 -34 27 -49 26 -79 -4z"/>
<path d="M1828 2383 c15 -6 16 -65 0 -81 -9 -9 -8 -12 5 -12 23 0 41 42 33 74
-5 19 -13 26 -29 25 -12 0 -16 -3 -9 -6z"/>
<path d="M4320 2226 c0 -5 9 -39 19 -75 10 -36 22 -79 25 -95 4 -15 10 -26 13
-23 3 3 0 29 -7 57 -13 52 -49 152 -50 136z"/>
<path d="M1206 1989 c-26 -245 -14 -638 23 -782 38 -148 118 -276 206 -335 94
-61 148 -76 270 -76 247 1 435 85 562 251 23 30 24 36 13 63 -7 16 -19 35 -27
42 -13 10 -19 7 -36 -17 -39 -57 -116 -124 -175 -154 -102 -52 -165 -65 -302
-66 -117 0 -128 2 -175 27 -69 36 -111 81 -150 158 -60 121 -75 206 -82 470
-5 200 -8 239 -23 260 -29 42 -67 123 -75 160 -13 64 -22 63 -29 -1z"/>
<path d="M4371 2013 c0 -4 4 -17 9 -28 8 -19 9 -19 9 2 1 12 -3 25 -9 28 -5 3
-10 3 -9 -2z"/>
<path d="M4392 1935 c0 -16 2 -22 5 -12 2 9 2 23 0 30 -3 6 -5 -1 -5 -18z"/>
<path d="M4402 1850 c0 -14 2 -19 5 -12 2 6 2 18 0 25 -3 6 -5 1 -5 -13z"/>
<path d="M2633 983 c-3 -10 -14 -39 -24 -65 -27 -70 -67 -217 -61 -223 14 -14
39 -2 48 23 9 23 19 30 50 35 32 6 42 3 57 -14 9 -12 17 -27 17 -34 0 -17 31
-28 43 -16 7 7 6 19 -3 36 -12 22 -11 27 4 44 14 15 15 21 4 27 -7 5 -20 9
-28 9 -18 0 -39 58 -48 135 -6 47 -10 55 -30 58 -14 2 -24 -3 -29 -15z m31
-125 c12 -47 7 -65 -19 -70 -34 -7 -37 2 -18 51 18 46 28 51 37 19z"/>
<path d="M3125 988 c-35 -115 -58 -178 -63 -178 -8 0 -52 140 -52 164 0 11 -9
16 -28 16 -27 0 -29 -4 -52 -82 -35 -125 -36 -125 -63 12 -11 55 -16 66 -35
68 -12 2 -24 -3 -27 -10 -2 -7 13 -78 34 -158 28 -110 42 -146 55 -148 28 -6
48 18 41 49 -7 30 33 162 46 154 11 -8 39 -96 39 -125 0 -35 32 -64 59 -55 14
4 21 15 21 33 0 15 17 72 36 127 51 142 52 145 20 145 -15 0 -28 -6 -31 -12z"/>
<path d="M3817 993 c-3 -5 -7 -76 -8 -158 l-2 -150 24 -3 24 -3 -1 158 c-2
132 -4 158 -17 161 -8 2 -17 -1 -20 -5z"/>
<path d="M3535 970 c-8 -26 7 -45 30 -36 21 8 16 50 -7 54 -10 2 -19 -5 -23
-18z"/>
<path d="M3620 836 l0 -144 60 0 c73 0 90 17 90 90 0 84 -35 132 -80 108 -19
-10 -20 -8 -20 40 0 47 -2 50 -25 50 l-25 0 0 -144z m100 5 c25 -48 -1 -144
-31 -114 -16 16 -22 76 -10 106 12 32 26 35 41 8z"/>
<path d="M3265 902 c-33 -7 -45 -23 -45 -58 0 -26 7 -39 35 -60 35 -27 47 -64
20 -64 -7 0 -18 7 -23 16 -5 9 -18 14 -33 12 l-24 -3 32 -33 c37 -37 51 -39
87 -11 38 30 35 65 -9 90 -32 19 -56 62 -42 75 10 10 27 -7 27 -27 0 -13 7
-19 21 -19 17 0 20 5 17 31 -3 35 -32 58 -63 51z"/>
<path d="M3413 897 c-12 -5 -27 -23 -32 -40 -10 -28 -8 -33 29 -68 41 -39 52
-69 25 -69 -7 0 -18 7 -23 16 -5 9 -18 14 -33 12 l-24 -3 32 -33 c37 -37 51
-39 87 -11 34 27 34 62 -1 88 -49 36 -53 41 -53 61 0 28 28 25 32 -2 3 -26 33
-36 41 -15 8 20 -14 59 -38 67 -11 4 -30 3 -42 -3z"/>
<path d="M3953 900 c-59 -24 -73 -167 -19 -202 37 -25 116 12 102 47 -6 17 -8
17 -29 -4 -27 -24 -52 -27 -60 -7 -4 9 5 21 21 31 63 40 81 100 40 129 -25 18
-25 18 -55 6z m44 -46 c4 -12 -34 -64 -48 -64 -12 0 -12 22 1 55 10 26 39 32
47 9z"/>
<path d="M3537 894 c-12 -13 -8 -189 5 -202 28 -28 33 -11 32 96 0 85 -4 108
-15 110 -8 1 -18 0 -22 -4z"/>
<path d="M2785 597 c-40 -42 -105 -146 -105 -167 0 -20 16 -2 40 46 30 57 110
144 133 144 9 0 17 5 17 10 0 25 -47 7 -85 -33z"/>
<path d="M2060 538 c-16 -24 -34 -48 -39 -54 -5 -6 -12 -26 -16 -45 -6 -30 -3
-27 30 26 20 33 45 69 56 81 21 22 24 34 9 34 -5 0 -23 -19 -40 -42z"/>
<path d="M2367 518 c-20 -22 -37 -44 -37 -48 0 -4 -7 -13 -16 -20 -18 -16 -15
-62 5 -68 9 -3 11 0 6 7 -10 18 1 54 27 83 36 40 69 88 60 88 -4 0 -24 -19
-45 -42z"/>
<path d="M3400 520 c0 -5 5 -10 10 -10 6 0 10 5 10 10 0 6 -4 10 -10 10 -5 0
-10 -4 -10 -10z"/>
<path d="M3067 485 c-37 -40 -114 -181 -105 -191 3 -2 24 24 46 58 23 35 55
82 73 105 44 57 33 79 -14 28z"/>
<path d="M3208 478 c-18 -23 -39 -54 -47 -68 -37 -66 -52 -102 -48 -113 2 -7
13 7 25 29 12 23 32 54 45 70 34 40 77 105 77 115 0 20 -20 7 -52 -33z"/>
<path d="M2883 485 c-36 -15 -68 -58 -59 -80 7 -20 26 -19 26 1 0 9 16 32 35
51 20 20 34 37 33 38 -2 2 -17 -3 -35 -10z"/>
<path d="M1310 459 c-31 -31 -36 -59 -12 -67 6 -2 12 4 12 13 0 9 15 32 34 51
27 27 30 34 16 34 -10 0 -33 -14 -50 -31z"/>
<path d="M1504 463 c-32 -48 -43 -72 -35 -78 13 -7 41 29 51 65 12 43 7 47
-16 13z"/>
<path d="M1574 461 c-30 -37 -40 -71 -20 -71 9 0 16 5 16 11 0 6 10 24 21 41
27 37 11 55 -17 19z"/>
<path d="M1771 459 c-32 -32 -40 -63 -18 -72 10 -3 12 3 9 23 -5 34 40 74 75
67 13 -2 23 0 23 4 0 22 -60 7 -89 -22z"/>
<path d="M1945 478 c-43 -23 -53 -38 -46 -65 10 -38 28 -39 28 -3 0 18 9 40
23 55 26 28 25 30 -5 13z"/>
<path d="M2095 478 c-45 -26 -59 -70 -26 -87 16 -9 17 -7 13 15 -3 18 3 33 24
55 29 30 24 37 -11 17z"/>
<path d="M2436 461 c-28 -29 -33 -70 -10 -78 7 -2 10 6 6 22 -7 37 33 78 70
73 15 -3 25 -1 22 4 -12 19 -61 7 -88 -21z"/>
<path d="M3443 443 c-17 -27 -28 -52 -25 -57 8 -15 62 55 62 81 0 13 -1 23 -3
23 -1 0 -16 -21 -34 -47z"/>
<path d="M3518 449 c-28 -43 -28 -59 -2 -59 8 0 12 5 9 10 -3 6 3 22 14 36 21
27 28 54 13 54 -4 0 -20 -19 -34 -41z"/>
<path d="M3609 461 c-23 -24 -27 -34 -20 -53 4 -13 17 -25 27 -27 15 -3 16 -1
6 12 -16 19 -6 46 27 74 22 19 23 23 8 23 -10 0 -32 -13 -48 -29z"/>
<path d="M3791 452 c-11 -23 -31 -48 -43 -56 -22 -15 -22 -16 -2 -16 18 0 69
29 52 30 -4 0 0 16 8 36 21 50 10 55 -15 6z"/>
<path d="M2753 447 c-26 -37 -29 -57 -10 -57 7 0 19 17 27 38 8 20 16 40 18
45 10 21 -16 2 -35 -26z"/>
<path d="M3341 454 c-27 -34 -27 -64 -1 -64 13 0 17 5 14 14 -3 8 2 28 11 45
19 38 4 41 -24 5z"/>
<path d="M3909 443 c-13 -21 -30 -43 -39 -50 -13 -11 -13 -12 1 -13 23 0 44
21 59 58 18 47 6 50 -21 5z"/>
<path d="M1397 452 c-17 -19 -23 -62 -9 -62 4 0 14 15 22 33 7 17 15 35 18 40
8 15 -15 6 -31 -11z"/>
<path d="M2930 438 c-18 -29 -18 -48 -2 -48 4 0 14 15 22 33 7 17 15 35 18 40
2 4 -1 7 -7 7 -6 0 -20 -14 -31 -32z"/>
<path d="M1812 428 c-16 -16 -15 -28 1 -28 7 0 18 9 25 20 10 16 10 20 -1 20
-7 0 -18 -5 -25 -12z"/>
<path d="M2480 425 c-21 -25 -1 -31 23 -7 17 18 18 22 5 22 -8 0 -21 -7 -28
-15z"/>
</g>
</svg>
